# xmcd CD database file
#
# Track frame offsets:
#	150
#	19397
#	35985
#	45112
#	56747
#	69757
#	84032
#	98982
#	112527
#	130237
#	141792
#	153590
#	167305
#	184952
#	207765
#	217985
#	230832
#	245295
#	261682
#	276795
#
# Disc length: 3860 seconds
#
# Revision: 1
# Processed by: cddbd v1.5.2PL0 Copyright (c) Steve Scherf et al.
# Submitted via: CDex 1.70beta2
#
DISCID=140f1214
DTITLE=Ray Charles - Best of Selection Artist Ray Charles
DYEAR=1900
DGENRE=Blues
TTITLE0=I Can't Stop Loving You
TTITLE1=Georgia On My Mind
TTITLE2=Hit The Road Jack
TTITLE3=Hallelujah I Love Her So
TTITLE4=Unchain My Heart
TTITLE5=One Mint Julip
TTITLE6=You Don't Know Me
TTITLE7=Crying Time
TTITLE8=Careless Love
TTITLE9=I Chose To Sing The Blues
TTITLE10=Baby Don't You Cry
TTITLE11=You Are My Sunshine
TTITLE12=Ruby
TTITLE13=What'd I Say
TTITLE14=Sticks And Stones
TTITLE15=Them That Got
TTITLE16=No One
TTITLE17=Without Love (There Is Nothing)
TTITLE18=I'm A Fool To Care
TTITLE19=I Got A Woman
EXTD=
EXTT0=
EXTT1=
EXTT2=
EXTT3=
EXTT4=
EXTT5=
EXTT6=
EXTT7=
EXTT8=
EXTT9=
EXTT10=
EXTT11=
EXTT12=
EXTT13=
EXTT14=
EXTT15=
EXTT16=
EXTT17=
EXTT18=
EXTT19=
PLAYORDER=
